<?xml version="1.0" encoding="UTF-8"?>
<!DOCTYPE svg PUBLIC "-//W3C//DTD SVG 1.1//EN" "http://www.w3.org/Graphics/SVG/1.1/DTD/svg11.dtd">
<!-- Creator: CorelDRAW X7 -->
<svg xmlns="http://www.w3.org/2000/svg" xml:space="preserve" width="1584px" height="1584px" version="1.1" style="shape-rendering:geometricPrecision; text-rendering:geometricPrecision; image-rendering:optimizeQuality; fill-rule:evenodd; clip-rule:evenodd"
viewBox="0 0 8272 8272"
 xmlns:xlink="http://www.w3.org/1999/xlink">
 <defs>
  <style type="text/css">
   <![CDATA[
    .fil0 {fill:none}
    .fil1 {fill:#333333}
   ]]>
  </style>
 </defs>
 <g id="Layer_x0020_1">
  <metadata id="CorelCorpID_0Corel-Layer"/>
  <g id="_2484092607680">
   <rect class="fil0" width="8272" height="8272"/>
   <path class="fil1" d="M3175 3557l-20 520c-2,86 -6,184 -12,293l-123 38c-92,-132 -218,-199 -380,-199 -147,0 -268,59 -363,176 -59,72 -87,179 -87,318l0 686c0,141 6,340 19,594 4,72 25,118 62,139 37,22 173,36 407,44l29 27 0 178 -29 30c-287,-12 -571,-18 -854,-18 -349,0 -616,7 -799,21l-29 -30 0 -179 29 -29c187,-6 304,-20 348,-44 40,-17 61,-63 65,-139 14,-254 20,-527 20,-817l0 -419c0,-389 -14,-614 -44,-673 -19,-39 -61,-63 -125,-73 -24,-3 -109,-9 -255,-14l-30 -29 0 -164 30 -32c351,-33 720,-114 1109,-243l64 38 -6 573c121,-141 267,-304 439,-491 80,-78 189,-117 327,-117 82,0 152,11 208,35zm2791 1184c0,34 -1,83 -3,150l-32 41c-258,70 -599,105 -1023,105 -77,0 -192,2 -346,5 -154,3 -271,4 -348,4 12,287 100,523 266,711 174,201 400,302 678,302 188,0 411,-65 667,-194l71 85 -129 289c-284,182 -594,273 -927,273 -439,0 -780,-124 -1023,-372 -242,-247 -364,-601 -364,-1059 0,-544 130,-917 389,-1117 360,-277 699,-416 1022,-416 348,0 619,101 809,302 195,206 293,504 293,891zm-764 -75c0,-527 -164,-790 -491,-790 -345,0 -517,261 -517,784l0 64c112,17 313,26 602,26 151,0 284,-9 404,-26 1,-27 2,-46 2,-58zm1724 -1012c126,0 234,46 323,137 89,92 133,199 133,324 0,127 -44,237 -133,329 -89,91 -197,137 -323,137 -127,0 -235,-45 -325,-136 -90,-91 -135,-201 -135,-330 0,-128 45,-237 135,-327 90,-89 198,-134 325,-134zm0 1892c124,0 231,44 321,133 90,89 135,200 135,333 0,128 -45,237 -135,327 -90,90 -197,135 -321,135 -125,0 -233,-46 -324,-136 -91,-91 -136,-200 -136,-326 0,-129 45,-239 135,-330 90,-91 198,-136 325,-136z"/>
  </g>
 </g>
</svg>
