<?xml version="1.0" encoding="UTF-8"?>
<!DOCTYPE svg PUBLIC "-//W3C//DTD SVG 1.1//EN" "http://www.w3.org/Graphics/SVG/1.1/DTD/svg11.dtd">
<!-- Creator: CorelDRAW X7 -->
<svg xmlns="http://www.w3.org/2000/svg" xml:space="preserve" width="3205px" height="681px" version="1.1" style="shape-rendering:geometricPrecision; text-rendering:geometricPrecision; image-rendering:optimizeQuality; fill-rule:evenodd; clip-rule:evenodd"
viewBox="0 0 3287 699"
 xmlns:xlink="http://www.w3.org/1999/xlink">
 <defs>
  <style type="text/css">
   <![CDATA[
    .fil0 {fill:#333333}
   ]]>
  </style>
 </defs>
 <g id="Layer_x0020_1">
  <metadata id="CorelCorpID_0Corel-Layer"/>
  <path class="fil0" d="M339 239l-5 126 -19 6c-28,-40 -84,-42 -116,-3 -9,11 -13,27 -13,49 0,75 -1,118 3,199 1,11 4,19 10,22 5,3 26,6 63,7l4 4 0 28 -4 4c-76,-3 -193,-4 -257,1l-5 -5 0 -28 5 -4c29,-1 47,-3 54,-7 6,-3 9,-10 10,-22 3,-61 3,-128 3,-192 0,-61 -2,-96 -7,-105 -3,-6 -9,-10 -19,-11 -4,-1 -17,-2 -40,-2l-5 -5 0 -26 5 -4c54,-6 112,-18 172,-38l10 6 0 89c18,-22 41,-48 68,-77 19,-20 60,-22 83,-12zm435 184c0,5 0,13 -1,23l-5 7c-40,11 -93,16 -159,16l-108 1c4,87 58,158 147,158 29,0 64,-10 104,-30l11 13 -20 45c-44,29 -93,43 -145,43 -139,0 -216,-83 -216,-223 0,-85 21,-143 61,-174 56,-43 109,-65 159,-65 115,0 172,72 172,186zm-119 -12c0,-82 -26,-123 -77,-123 -53,0 -80,41 -80,122l0 10c31,5 112,7 157,0 0,-4 0,-7 0,-9zm268 -157c63,0 95,77 51,123 -45,45 -122,14 -122,-51 0,-41 31,-72 71,-72zm0 294c65,0 95,79 50,124 -46,46 -121,11 -121,-51 0,-40 31,-73 71,-73zm761 51l-21 46c-64,36 -135,53 -215,53 -158,0 -267,-57 -325,-171 -27,-53 -40,-110 -40,-172 0,-99 33,-179 99,-238 68,-61 160,-92 277,-92 75,0 148,14 219,41l5 7c-10,42 -16,91 -19,147l-4 5 -27 0 -4 -5c-1,-37 -3,-63 -5,-77 -38,-43 -93,-64 -165,-64 -155,0 -236,108 -236,260 0,109 37,192 112,250 40,31 93,46 160,46 61,0 120,-15 178,-47l11 11zm314 78l-4 5c-58,-4 -192,-4 -250,0l-4 -5 0 -28 4 -4c30,-1 48,-3 55,-7 6,-3 9,-10 10,-22 3,-70 3,-259 3,-360 0,-63 -1,-115 -3,-154 -1,-12 -4,-19 -10,-23 -6,-3 -24,-5 -53,-6l-5 -5 0 -25 5 -5c58,-7 117,-19 176,-38l10 5c0,9 -1,24 -2,46 -3,72 -4,152 -4,241l0 117c0,99 1,168 3,207 1,12 4,19 10,22 7,4 25,6 54,7l5 4 0 28zm471 -1l-5 5c-47,-3 -112,-3 -162,0l-4 -5 4 -61 -88 67c-12,9 -32,11 -49,11 -70,0 -105,-46 -105,-115 0,-47 16,-81 46,-101 32,-21 98,-41 196,-58 0,-48 -13,-81 -38,-97 -16,-10 -34,-15 -56,-15 -24,0 -42,5 -56,15l-17 42 -6 3 -23 -5 -4 -7 3 -54c50,-37 87,-58 113,-62 10,-3 24,-4 41,-4 60,0 103,16 128,47 32,40 29,99 27,161 -3,60 -4,141 0,173 1,12 5,20 10,23 6,4 19,6 41,6l4 5 0 26zm-167 -106l0 -112c-50,11 -84,22 -101,35 -18,13 -27,32 -27,58 0,41 18,62 55,62 30,0 55,-15 73,-43zm571 -34c0,49 -19,88 -56,118 -37,30 -85,45 -144,45 -43,0 -88,-9 -136,-28l-5 -7c3,-27 4,-49 5,-65l2 -57 5 -5 27 0 5 5c1,34 3,54 4,60 26,33 60,50 102,50 47,0 88,-24 88,-72 0,-28 -12,-46 -36,-55 -39,-15 -125,-22 -162,-52 -26,-21 -39,-51 -39,-92 0,-44 16,-79 48,-106 33,-28 78,-42 135,-42 49,0 89,8 122,25l4 7c-4,14 -6,49 -8,105l-5 5 -26 0 -5 -5c-1,-22 -3,-39 -6,-53 -19,-24 -47,-37 -84,-37 -41,0 -81,21 -81,63 0,26 13,42 39,51 42,14 134,22 168,50 26,20 39,51 39,92zm414 0c0,49 -19,88 -56,118 -36,30 -85,45 -144,45 -43,0 -88,-9 -136,-28l-5 -7c3,-27 4,-49 5,-65l2 -57 5 -5 27 0 5 5c1,34 3,54 4,60 26,33 60,50 102,50 47,0 88,-24 88,-72 0,-28 -12,-46 -36,-55 -39,-15 -125,-22 -162,-52 -26,-21 -39,-51 -39,-92 0,-44 16,-79 48,-106 33,-28 78,-42 135,-42 49,0 89,8 122,25l4 7c-4,14 -6,49 -8,105l-5 5 -26 0 -5 -5c-1,-22 -3,-39 -6,-53 -19,-24 -47,-37 -84,-37 -41,0 -81,21 -81,63 0,26 13,42 39,51 42,14 134,22 168,50 26,20 39,51 39,92z"/>
 </g>
</svg>
